<svg xmlns="http://www.w3.org/2000/svg" width="420" height="270" viewBox="0 0 420 270" role="img" aria-label="Recent activity for Huluvu424242">

  <defs>
    <style>
      .card { fill:#0d1117; stroke:#30363d; stroke-width:1; }
      .title { font:700 18px system-ui,-apple-system,Segoe UI,Roboto,Ubuntu,Cantarell,Noto Sans,Arial; fill:#e6edf3; }
      .sub   { font:500 12px system-ui,-apple-system,Segoe UI,Roboto,Ubuntu,Cantarell,Noto Sans,Arial; fill:#8b949e; }
      .txt   { font:600 14px system-ui,-apple-system,Segoe UI,Roboto,Ubuntu,Cantarell,Noto Sans,Arial; fill:#c9d1d9; }
      .muted { font:500 12px system-ui,-apple-system,Segoe UI,Roboto,Ubuntu,Cantarell,Noto Sans,Arial; fill:#8b949e; }
      .num   { font:800 20px system-ui,-apple-system,Segoe UI,Roboto,Ubuntu,Cantarell,Noto Sans,Arial; fill:#e6edf3; }
      .pill  { fill:#161b22; stroke:#30363d; stroke-width:1; }
      .barbg { fill:#161b22; }
      .shadow { filter: drop-shadow(0px 2px 8px rgba(0,0,0,0.35)); }
    </style>
  </defs>


  <rect x="10" y="10" width="400" height="250" rx="18" class="card"/>
  <text x="24" y="40" class="title">Activity (last 30 days)</text>
  <text x="24" y="58" class="sub">Commits trend + PRs/Issues created</text>

<rect x="24" y="66" width="372" height="5" rx="3" fill="#eab308"/>
<text x="24" y="92" class="muted">Commits/day</text>
<g><rect x="24" y="98" width="10" height="32" rx="4" fill="#1f2937"/><rect x="36" y="98" width="10" height="32" rx="4" fill="#1f2937"/><rect x="48" y="98" width="10" height="32" rx="4" fill="#1f2937"/><rect x="60" y="98" width="10" height="32" rx="4" fill="#1f2937"/><rect x="72" y="98" width="10" height="32" rx="4" fill="#1f2937"/><rect x="84" y="98" width="10" height="32" rx="4" fill="#1f2937"/><rect x="96" y="98" width="10" height="32" rx="4" fill="#1f2937"/><rect x="108" y="98" width="10" height="32" rx="4" fill="#1f2937"/><rect x="120" y="98" width="10" height="32" rx="4" fill="#1f2937"/><rect x="132" y="98" width="10" height="32" rx="4" fill="#1f2937"/><rect x="144" y="98" width="10" height="32" rx="4" fill="#1f2937"/><rect x="156" y="98" width="10" height="32" rx="4" fill="#1f2937"/><rect x="168" y="98" width="10" height="32" rx="4" fill="#1f2937"/><rect x="180" y="98" width="10" height="32" rx="4" fill="#1f2937"/><rect x="192" y="98" width="10" height="32" rx="4" fill="#1f2937"/><rect x="204" y="98" width="10" height="32" rx="4" fill="#1f2937"/><rect x="216" y="98" width="10" height="32" rx="4" fill="#1f2937"/><rect x="228" y="98" width="10" height="32" rx="4" fill="#1f2937"/><rect x="240" y="98" width="10" height="32" rx="4" fill="#1f2937"/><rect x="252" y="98" width="10" height="32" rx="4" fill="#1f2937"/><rect x="264" y="98" width="10" height="32" rx="4" fill="#1f2937"/><rect x="276" y="98" width="10" height="32" rx="4" fill="#1f2937"/><rect x="288" y="98" width="10" height="32" rx="4" fill="#1f2937"/><rect x="300" y="98" width="10" height="32" rx="4" fill="#f97316"/><rect x="312" y="98" width="10" height="32" rx="4" fill="#1f2937"/><rect x="324" y="98" width="10" height="32" rx="4" fill="#1f2937"/><rect x="336" y="98" width="10" height="32" rx="4" fill="#1f2937"/><rect x="348" y="98" width="10" height="32" rx="4" fill="#1f2937"/><rect x="360" y="98" width="10" height="32" rx="4" fill="#1f2937"/><rect x="372" y="98" width="10" height="32" rx="4" fill="#1f2937"/><rect x="384" y="98" width="10" height="32" rx="4" fill="#1f2937"/></g>

  <g class="shadow">
    <rect x="24" y="140" width="372" height="44" rx="14" class="pill"/>
    <circle cx="44" cy="162" r="6" fill="#3b82f6"/>
    <text x="60" y="166" class="txt">PRs created</text>
    <text x="380" y="168" text-anchor="end" class="num">0</text>
  </g>


  <g class="shadow">
    <rect x="24" y="190" width="372" height="44" rx="14" class="pill"/>
    <circle cx="44" cy="212" r="6" fill="#f97316"/>
    <text x="60" y="216" class="txt">Issues created</text>
    <text x="380" y="218" text-anchor="end" class="num">0</text>
  </g>

<text x="24" y="246" class="muted">Updated: 2026-02-11 04:14 UTC</text>
</svg>
