<svg xmlns="http://www.w3.org/2000/svg" width="880" height="420" viewBox="0 0 880 420" role="img" aria-label="Top languages for Huluvu424242">

  <defs>
    <style>
      .card { fill:#0d1117; stroke:#30363d; stroke-width:1; }
      .title { font:700 18px system-ui,-apple-system,Segoe UI,Roboto,Ubuntu,Cantarell,Noto Sans,Arial; fill:#e6edf3; }
      .sub   { font:500 12px system-ui,-apple-system,Segoe UI,Roboto,Ubuntu,Cantarell,Noto Sans,Arial; fill:#8b949e; }
      .txt   { font:600 14px system-ui,-apple-system,Segoe UI,Roboto,Ubuntu,Cantarell,Noto Sans,Arial; fill:#c9d1d9; }
      .muted { font:500 12px system-ui,-apple-system,Segoe UI,Roboto,Ubuntu,Cantarell,Noto Sans,Arial; fill:#8b949e; }
      .num   { font:800 20px system-ui,-apple-system,Segoe UI,Roboto,Ubuntu,Cantarell,Noto Sans,Arial; fill:#e6edf3; }
      .pill  { fill:#161b22; stroke:#30363d; stroke-width:1; }
      .barbg { fill:#161b22; }
      .shadow { filter: drop-shadow(0px 2px 8px rgba(0,0,0,0.35)); }
    </style>
  </defs>


  <rect x="10" y="10" width="860" height="400" rx="18" class="card"/>
  <text x="24" y="40" class="title">Top Languages</text>
  <text x="24" y="58" class="sub">Top languages by bytes (summed across repos)</text>

<rect x="24" y="66" width="832" height="5" rx="3" fill="#14b8a6"/>

  <text x="24" y="92" class="muted">Language</text>
  <text x="280" y="92" class="muted">Share</text>
  <text x="360" y="92" class="muted">Usage</text>
  <rect x="24" y="104" width="832" height="1" fill="#30363d"/>


  <circle cx="24" cy="128" r="5" fill="#22c55e"/>
  <text x="38" y="132" class="txt">Java</text>
  <text x="280" y="132" class="txt">62.8%</text>
  <rect x="360" y="118" width="496" height="12" rx="6" class="barbg"/>
  <rect x="360" y="118" width="311" height="12" rx="6" fill="#22c55e"/>

  <circle cx="24" cy="154" r="5" fill="#3b82f6"/>
  <text x="38" y="158" class="txt">Jupyter Notebook</text>
  <text x="280" y="158" class="txt">13.8%</text>
  <rect x="360" y="144" width="496" height="12" rx="6" class="barbg"/>
  <rect x="360" y="144" width="68" height="12" rx="6" fill="#3b82f6"/>

  <circle cx="24" cy="180" r="5" fill="#a855f7"/>
  <text x="38" y="184" class="txt">TypeScript</text>
  <text x="280" y="184" class="txt">12.9%</text>
  <rect x="360" y="170" width="496" height="12" rx="6" class="barbg"/>
  <rect x="360" y="170" width="63" height="12" rx="6" fill="#a855f7"/>

  <circle cx="24" cy="206" r="5" fill="#f97316"/>
  <text x="38" y="210" class="txt">HTML</text>
  <text x="280" y="210" class="txt">4.8%</text>
  <rect x="360" y="196" width="496" height="12" rx="6" class="barbg"/>
  <rect x="360" y="196" width="23" height="12" rx="6" fill="#f97316"/>

  <circle cx="24" cy="232" r="5" fill="#eab308"/>
  <text x="38" y="236" class="txt">JavaScript</text>
  <text x="280" y="236" class="txt">1.8%</text>
  <rect x="360" y="222" width="496" height="12" rx="6" class="barbg"/>
  <rect x="360" y="222" width="9" height="12" rx="6" fill="#eab308"/>

  <circle cx="24" cy="258" r="5" fill="#ef4444"/>
  <text x="38" y="262" class="txt">Xtend</text>
  <text x="280" y="262" class="txt">1.7%</text>
  <rect x="360" y="248" width="496" height="12" rx="6" class="barbg"/>
  <rect x="360" y="248" width="8" height="12" rx="6" fill="#ef4444"/>

  <circle cx="24" cy="284" r="5" fill="#14b8a6"/>
  <text x="38" y="288" class="txt">CSS</text>
  <text x="280" y="288" class="txt">1.4%</text>
  <rect x="360" y="274" width="496" height="12" rx="6" class="barbg"/>
  <rect x="360" y="274" width="6" height="12" rx="6" fill="#14b8a6"/>

  <circle cx="24" cy="310" r="5" fill="#f43f5e"/>
  <text x="38" y="314" class="txt">C</text>
  <text x="280" y="314" class="txt">0.8%</text>
  <rect x="360" y="300" width="496" height="12" rx="6" class="barbg"/>
  <rect x="360" y="300" width="4" height="12" rx="6" fill="#f43f5e"/>

<text x="24" y="396" class="muted">Updated: 2026-01-28 03:53 UTC</text>
</svg>
